<?xml version="1.0" encoding="utf-8"?>
<!-- Generator: Adobe Illustrator 21.1.0, SVG Export Plug-In . SVG Version: 6.00 Build 0)  -->
<svg version="1.1" id="レイヤー_1" xmlns="http://www.w3.org/2000/svg" xmlns:xlink="http://www.w3.org/1999/xlink" x="0px"
	 y="0px" viewBox="0 0 841.9 595.3" style="enable-background:new 0 0 841.9 595.3;" xml:space="preserve">
<style type="text/css">
	.st0{fill:#231815;}
</style>
<path class="st0" d="M484.4,247.1h-29.7c-1.6,0-2.8-1.3-2.8-2.8v-3c0-1.6,1.3-2.8,2.8-2.8h29.7c1.6,0,2.8,1.3,2.8,2.8v3
	C487.3,245.9,486,247.1,484.4,247.1z M512.6,319.5v-74c0-6.6-5.4-12-12-12h-62.7c-6.6,0-12,5.4-12,12v74c0,6.6,5.4,12,12,12h62.7
	C507.2,331.5,512.6,326.1,512.6,319.5z M501.1,289.8h-62.9c-2.3,0-4.2-1.9-4.2-4.2V257c0-2.3,1.9-4.2,4.2-4.2h62.9
	c2.3,0,4.2,1.9,4.2,4.2v28.5C505.3,287.9,503.4,289.8,501.1,289.8z M449.9,312.5c0,3.3-2.7,6-6,6s-6-2.7-6-6s2.7-6,6-6
	S449.9,309.2,449.9,312.5z M500.9,312.5c0,3.3-2.7,6-6,6s-6-2.7-6-6s2.7-6,6-6S500.9,309.2,500.9,312.5z"/>
<polygon class="st0" points="491.5,331.5 447.1,331.5 421,361.8 432,361.8 454,335.8 484.6,335.8 506.6,361.8 517.6,361.8 "/>
<path class="st0" d="M492,238.1h-45.3c-2.6,0-4.7-2.1-4.7-4.7v0c0-2.6,2.1-4.7,4.7-4.7H492c2.6,0,4.7,2.1,4.7,4.7v0
	C496.6,236.1,494.5,238.1,492,238.1z"/>
</svg>
